<?xml version="1.0" encoding="iso-8859-1"?>
<!-- Uploaded to: SVG Repo, www.svgrepo.com, Generator: SVG Repo Mixer Tools -->
<!DOCTYPE svg PUBLIC "-//W3C//DTD SVG 1.1//EN" "http://www.w3.org/Graphics/SVG/1.1/DTD/svg11.dtd">
<svg fill="#000000" height="800px" width="800px" version="1.1" id="Capa_1" xmlns="http://www.w3.org/2000/svg" xmlns:xlink="http://www.w3.org/1999/xlink" 
	 viewBox="0 0 179.129 179.129" xml:space="preserve">
<path d="M127.219,13.069c-18.474,0-31.411,11.723-37.655,18.991C83.32,24.792,70.384,13.069,51.91,13.069
	C26.908,13.069,0,30.152,0,67.658c0,37.902,18.932,57.451,37.451,71.575c22.445,17.119,46.463,25.253,50.154,26.441
	c0.611,0.255,1.266,0.386,1.927,0.386c0.084,0,0.168-0.002,0.252-0.006c0.562-0.022,1.118-0.141,1.642-0.348
	c3.34-1.069,27.598-9.194,50.253-26.473c18.519-14.124,37.451-33.672,37.451-71.575C179.129,30.152,152.221,13.069,127.219,13.069z"
	/>
</svg>